<svg xmlns="http://www.w3.org/2000/svg" width="64" height="64" viewBox="0 0 16 16" role="img" aria-label="Pixel sakura">
  <rect width="16" height="16" fill="none"/>
  <!-- Petals -->
  <g fill="#ffb7c5">
    <rect x="7" y="1" width="2" height="3"/>
    <rect x="6" y="2" width="1" height="2"/>
    <rect x="9" y="2" width="1" height="2"/>
    <rect x="5" y="3" width="1" height="2"/>
    <rect x="10" y="3" width="1" height="2"/>
  </g>
  <g fill="#ff69b4">
    <rect x="11" y="4" width="3" height="2"/>
    <rect x="12" y="3" width="1" height="1"/>
    <rect x="13" y="2" width="1" height="1"/>
    <rect x="14" y="5" width="1" height="2"/>
    <rect x="10" y="6" width="1" height="1"/>
  </g>
  <g fill="#ffb7c5">
    <rect x="11" y="8" width="3" height="2"/>
    <rect x="13" y="7" width="1" height="1"/>
    <rect x="14" y="9" width="1" height="2"/>
    <rect x="10" y="9" width="1" height="1"/>
    <rect x="12" y="10" width="1" height="1"/>
  </g>
  <g fill="#ff69b4">
    <rect x="7" y="11" width="2" height="3"/>
    <rect x="6" y="11" width="1" height="2"/>
    <rect x="9" y="11" width="1" height="2"/>
    <rect x="5" y="10" width="1" height="2"/>
    <rect x="10" y="10" width="1" height="2"/>
  </g>
  <g fill="#ffb7c5">
    <rect x="2" y="8" width="3" height="2"/>
    <rect x="1" y="9" width="1" height="2"/>
    <rect x="5" y="9" width="1" height="1"/>
    <rect x="2" y="7" width="1" height="1"/>
    <rect x="3" y="10" width="1" height="1"/>
  </g>
  <g fill="#ff69b4">
    <rect x="2" y="4" width="3" height="2"/>
    <rect x="1" y="5" width="1" height="2"/>
    <rect x="2" y="3" width="1" height="1"/>
    <rect x="5" y="5" width="1" height="1"/>
    <rect x="3" y="2" width="1" height="1"/>
  </g>
  <!-- Center -->
  <g fill="#fff5f5">
    <rect x="6" y="6" width="4" height="4"/>
  </g>
  <g fill="#ffd700">
    <rect x="7" y="7" width="2" height="2"/>
  </g>
</svg>
